ply
format ascii 1.0
comment Created by Blender 3.0.0 - www.blender.org
element vertex 507
property float x
property float y
property float z
element face 967
property list uchar uint vertex_indices
end_header
0.468750 -0.024831 0.795184
0.500000 -0.141260 0.679331
0.562500 0.003872 0.714182
-0.500000 -0.141260 0.679331
-0.468750 -0.024831 0.795184
-0.562500 0.003872 0.714182
0.546875 -0.141547 0.563190
0.625000 0.040404 0.611088
-0.546875 -0.141547 0.563190
-0.625000 0.040404 0.611088
0.351562 -0.228233 0.573916
-0.351562 -0.228233 0.573916
0.437500 -0.101079 0.776454
0.351562 -0.210608 0.687912
-0.351562 -0.210608 0.687912
-0.437500 -0.101079 0.776454
0.351562 -0.135753 0.780744
0.203125 -0.159525 0.730878
-0.203125 -0.159525 0.730878
-0.351562 -0.135753 0.780744
0.156250 -0.165032 0.629465
-0.156250 -0.165032 0.629465
0.140625 -0.019612 0.780457
-0.140625 -0.019612 0.780457
-0.078125 0.009091 0.699454
0.242188 -0.037878 0.832003
0.273438 -0.111516 0.805910
-0.242188 -0.037878 0.832003
0.203125 0.120301 0.830035
-0.203125 0.120301 0.830035
0.078125 0.009091 0.699454
-0.156250 0.195797 0.757325
0.351562 0.187040 0.828818
0.156250 0.195797 0.757325
-0.351562 0.187040 0.828818
-0.351562 0.279873 0.753963
0.351562 0.077799 0.856417
0.273438 0.043124 0.860707
-0.351562 0.077799 0.856417
0.437500 0.053562 0.831251
-0.437500 0.053562 0.831251
-0.500000 0.138567 0.778488
0.500000 0.138567 0.778488
0.351562 0.279873 0.753963
-0.546875 0.219281 0.691050
0.546875 0.219281 0.691050
0.476562 -0.030050 0.809912
-0.476562 -0.030050 0.809912
-0.445312 0.055707 0.848588
0.445312 0.055707 0.848588
-0.351562 0.084698 0.883727
0.351562 0.084698 0.883727
-0.273438 0.043124 0.860707
-0.265625 0.042660 0.885408
0.265625 0.042660 0.885408
-0.226562 -0.045706 0.854095
0.265625 -0.126708 0.825392
0.226562 -0.045706 0.854095
-0.265625 -0.126708 0.825392
0.351562 -0.158309 0.797617
-0.351562 -0.158309 0.797617
-0.273438 -0.111516 0.805910
0.445312 -0.113661 0.788573
-0.445312 -0.113661 0.788573
0.351562 -0.048315 0.861459
-0.351562 -0.048315 0.861459
0.164062 -1.087658 0.285955
0.000000 -1.120939 0.216142
0.179688 -1.098384 0.199270
-0.164062 -1.087658 0.285955
0.000000 -1.104995 0.288100
0.234375 -1.072930 0.291174
0.328125 -1.065854 0.177642
-0.234375 -1.072930 0.291174
-0.179688 -1.098384 0.199270
0.367188 -1.016917 0.203272
-0.367188 -1.016917 0.203272
-0.328125 -1.065854 0.177642
0.351562 -0.845868 0.305326
0.265625 -0.995002 0.351942
-0.265625 -0.995002 0.351942
-0.351562 -0.845868 0.305326
0.312500 -0.602861 0.391435
0.250000 -0.892372 0.413174
-0.250000 -0.892372 0.413174
-0.312500 -0.602861 0.391435
0.203125 -0.364608 0.467572
0.398438 -0.268590 0.617635
0.125000 -0.367106 0.731918
-0.398438 -0.268590 0.617635
-0.203125 -0.364608 0.467572
-0.125000 -0.367106 0.731918
0.632812 -0.216867 0.495059
0.437500 -0.309987 0.453773
-0.632812 -0.216867 0.495059
-0.617188 -0.157204 0.607374
0.726562 -0.009463 0.634860
0.617188 -0.157204 0.607374
-0.726562 -0.009463 0.634860
0.859375 0.206698 0.703169
0.828125 -0.008822 0.469318
-0.859375 0.206698 0.703169
-0.742188 0.134276 0.743814
0.710938 0.247808 0.750890
0.742188 0.134276 0.743814
-0.710938 0.247808 0.750890
-0.687500 0.147611 0.823135
0.492188 0.337391 0.848941
0.687500 0.147611 0.823135
-0.492188 0.337391 0.848941
-0.437500 0.249312 0.933769
0.312500 0.324631 1.001901
0.437500 0.249312 0.933769
-0.312500 0.324631 1.001901
0.156250 0.424364 0.954357
0.320312 0.469011 0.945312
-0.156250 0.424364 0.954357
-0.203125 0.297321 1.008801
0.062500 0.213422 0.871321
0.203125 0.297321 1.008801
-0.062500 0.213422 0.871321
-0.101562 0.123198 0.938812
0.000000 0.157120 0.843082
0.101562 0.123198 0.938812
0.000000 0.057388 0.890626
0.250000 0.188721 0.870856
0.164062 0.131955 0.867318
-0.250000 0.188721 0.870856
0.328125 0.201303 0.858738
0.429688 0.172312 0.823600
-0.328125 0.201303 0.858738
0.601562 0.131667 0.751178
-0.429688 0.172312 0.823600
0.640625 0.063247 0.710356
-0.601562 0.131667 0.751178
0.625000 -0.039847 0.673825
-0.640625 0.063247 0.710356
0.492188 -0.165496 0.654166
-0.625000 -0.039847 0.673825
0.375000 -0.220117 0.667965
-0.492188 -0.165496 0.654166
0.203125 -0.159525 0.730878
-0.203125 -0.159525 0.730878
-0.375000 -0.220117 0.667965
0.000000 -0.198490 0.700494
0.125000 0.031470 0.823423
-0.125000 0.031470 0.823423
0.000000 -0.056896 0.792111
0.132812 -0.054286 0.784747
-0.132812 -0.054286 0.784747
0.164062 -0.117952 0.753898
-0.164062 -0.117952 0.753898
0.062500 -1.064350 0.360522
-0.062500 -1.064350 0.360522
0.117188 -1.025386 0.390906
-0.117188 -1.025386 0.390906
0.109375 -0.922756 0.452138
0.210938 -0.657193 0.521375
0.117188 -0.893301 0.462576
-0.117188 -0.893301 0.462576
-0.210938 -0.657193 0.521375
-0.109375 -0.922756 0.452138
0.000000 -0.557173 0.589972
0.078125 -0.670240 0.558195
0.085938 -0.520354 0.603018
-0.078125 -0.670240 0.558195
0.000000 -0.670240 0.558195
0.000000 -0.885937 0.465185
0.000000 -0.966939 0.436482
0.125000 -0.464052 0.631257
0.093750 -0.518673 0.645056
-0.093750 -0.518673 0.645056
-0.125000 -0.464052 0.631257
-0.085938 -0.520354 0.603018
0.109375 -0.386124 0.692025
0.101562 -0.387805 0.649987
-0.109375 -0.386124 0.692025
-0.132812 -0.479709 0.675440
0.039062 -0.378760 0.694635
0.000000 -0.380441 0.652597
-0.039062 -0.378760 0.694635
-0.101562 -0.387805 0.649987
0.000000 -0.442890 0.688487
0.000000 -0.434597 0.641695
0.000000 -0.562856 0.629400
0.000000 -0.541229 0.661929
-0.078125 -0.504410 0.674976
0.046875 -0.411289 0.716262
-0.046875 -0.411289 0.716262
0.093750 -0.418653 0.713653
-0.093750 -0.418653 0.713653
0.132812 -0.479709 0.675440
-0.109375 -0.490146 0.704896
0.078125 -0.504410 0.674976
0.109375 -0.490146 0.704896
0.000000 -0.468055 0.712724
0.164062 -0.465733 0.589219
-0.164062 -0.465733 0.589219
-0.179688 -0.532008 0.565735
0.179688 -0.532008 0.565735
0.257812 -0.479820 0.418458
-0.257812 -0.479820 0.418458
0.234375 -0.420909 0.439333
-0.234375 -0.420909 0.439333
0.093750 -0.942238 0.436946
-0.093750 -0.942238 0.436946
0.000000 -0.969084 0.419145
0.093750 -1.010658 0.396125
-0.093750 -1.010658 0.396125
0.046875 -1.047013 0.358377
-0.046875 -1.047013 0.358377
0.000000 -1.069105 0.350549
0.000000 -1.054377 0.355768
0.000000 -1.021384 0.309440
-0.046875 -1.014020 0.312049
0.093750 -0.979810 0.332460
0.046875 -1.014020 0.312049
-0.093750 -0.979810 0.332460
0.093750 -0.928727 0.375426
-0.093750 -0.928727 0.375426
0.000000 -0.955573 0.357625
0.187500 -0.111052 0.781209
0.171875 -0.054751 0.809448
-0.187500 -0.111052 0.781209
-0.171875 -0.054751 0.809448
0.179688 0.018888 0.835541
-0.179688 0.018888 0.835541
0.210938 0.092526 0.861635
-0.210938 0.092526 0.861635
-0.226562 -0.157845 0.772916
0.375000 -0.188981 0.720441
0.226562 -0.157845 0.772916
-0.375000 -0.188981 0.720441
0.476562 -0.144333 0.711396
-0.476562 -0.144333 0.711396
0.578125 -0.042920 0.705889
-0.578125 -0.042920 0.705889
0.585938 0.042837 0.744566
-0.585938 0.042837 0.744566
-0.562500 0.099138 0.772805
0.562500 0.099138 0.772805
-0.421875 0.117227 0.862100
0.335938 0.151901 0.857809
0.421875 0.117227 0.862100
-0.335938 0.151901 0.857809
0.273438 0.139319 0.869928
-0.273438 0.139319 0.869928
0.234375 0.085627 0.834325
0.281250 0.119837 0.854736
-0.234375 0.085627 0.834325
-0.281250 0.119837 0.854736
0.335938 0.132419 0.842618
-0.335938 0.132419 0.842618
0.414062 0.117692 0.837399
-0.414062 0.117692 0.837399
0.531250 0.089629 0.752858
-0.531250 0.089629 0.752858
0.554688 0.040692 0.727229
-0.554688 0.040692 0.727229
0.546875 -0.025583 0.703744
-0.546875 -0.025583 0.703744
0.460938 -0.124387 0.701887
-0.460938 -0.124387 0.701887
0.375000 -0.161670 0.713541
-0.375000 -0.161670 0.713541
0.242188 -0.135289 0.756043
-0.242188 -0.135289 0.756043
0.203125 -0.088496 0.764336
-0.203125 -0.088496 0.764336
0.195312 0.026716 0.813450
-0.195312 0.026716 0.813450
0.195312 -0.036949 0.782602
-0.195312 -0.036949 0.782602
0.109375 0.230935 0.728334
0.000000 0.181998 0.702704
-0.109375 0.230935 0.728334
0.195312 0.419786 0.803542
-0.195312 0.419786 0.803542
-0.320312 0.469011 0.945312
-0.335938 0.449706 0.789278
0.335938 0.449706 0.789278
-0.484375 0.337567 0.708100
0.484375 0.337567 0.708100
-0.679688 0.262712 0.615267
0.796875 0.228966 0.570155
0.679688 0.262712 0.615267
-0.796875 0.228966 0.570155
-0.828125 -0.008822 0.469318
-0.773438 0.029390 0.408262
0.601562 -0.138297 0.390284
0.773438 0.029390 0.408262
-0.601562 -0.138297 0.390284
0.437500 -0.244929 0.410518
-0.437500 -0.244929 0.410518
0.000000 -0.550496 0.103317
0.125000 -0.628137 0.158690
0.000000 -0.644546 0.111433
-0.125000 -0.628137 0.158690
-0.179688 -0.476394 0.104710
0.140625 -0.836934 0.092991
0.000000 -0.873289 0.055243
-0.140625 -0.836934 0.092991
0.164062 -1.037151 0.096640
0.000000 -1.074435 0.108294
-0.164062 -1.037151 0.096640
0.328125 -0.994649 0.070258
-0.328125 -0.994649 0.070258
0.289062 -0.797970 0.123375
-0.289062 -0.797970 0.123375
0.250000 -0.601756 0.201192
-0.250000 -0.601756 0.201192
0.179688 -0.476394 0.104710
0.234375 -0.467061 0.265498
-0.234375 -0.467061 0.265498
0.218750 -0.408615 0.311074
-0.218750 -0.408615 0.311074
-0.210938 -0.370115 0.366159
0.203125 -0.329005 0.413880
-0.203125 -0.329005 0.413880
-0.437500 -0.309987 0.453773
0.335938 0.273345 -0.607661
0.000000 0.040311 -0.698526
0.000000 0.342869 -0.757084
-0.335938 0.273345 -0.607661
-0.343750 0.040134 -0.557684
0.343750 0.040134 -0.557684
0.000000 -0.243406 -0.459233
-0.296875 -0.205835 -0.354746
0.210938 -0.422989 0.024172
0.000000 -0.497092 0.022779
-0.210938 -0.422989 0.024172
0.734375 -0.067668 0.050618
0.851562 0.202650 0.129828
-0.734375 -0.067668 0.050618
-0.851562 0.202650 0.129828
0.460938 0.647220 -0.516621
0.000000 0.814620 -0.614784
-0.460938 0.647220 -0.516621
0.453125 0.724378 0.505338
0.000000 0.953939 0.255144
0.000000 0.750295 0.572542
-0.453125 0.724378 0.505338
-0.453125 0.899782 0.244242
0.453125 0.945247 -0.071187
0.000000 1.029500 -0.215390
-0.453125 0.945247 -0.071187
0.726562 0.270717 0.452333
0.632812 0.333165 0.416443
-0.726562 0.270717 0.452333
-0.632812 0.333165 0.416443
0.796875 0.488447 0.305697
0.640625 0.644481 0.286392
-0.796875 0.488447 0.305697
-0.640625 0.644481 0.286392
0.796875 0.620885 0.095684
0.640625 0.772164 0.066405
-0.796875 0.620885 0.095684
-0.640625 0.772164 0.066405
0.796875 0.628137 -0.158690
0.640625 0.789390 -0.192723
-0.796875 0.628137 -0.158690
-0.640625 0.789390 -0.192723
0.617188 0.504985 -0.442695
0.773438 0.396496 -0.323656
-0.617188 0.504985 -0.442695
0.453125 0.899782 0.244242
0.460938 0.349862 0.579840
-0.460938 0.349862 0.579840
0.000000 0.347076 0.728046
0.859375 0.317574 0.062802
-0.859375 0.317574 0.062802
0.820312 0.377126 -0.081866
-0.820312 0.377126 -0.081866
0.296875 -0.205835 -0.354746
0.406250 -0.211583 0.082507
-0.406250 -0.211583 0.082507
-0.429688 -0.113643 -0.264059
0.593750 -0.063025 -0.196391
-0.593750 -0.063025 -0.196391
0.210938 -0.370115 0.366159
0.640625 0.136152 -0.407621
-0.640625 0.136152 -0.407621
-0.484375 0.204748 -0.507641
0.429688 -0.113643 -0.264059
0.484375 0.204748 -0.507641
0.890625 0.461202 -0.085227
1.015625 0.486831 -0.134165
1.023438 0.553570 -0.135382
-0.890625 0.461202 -0.085227
-1.015625 0.486831 -0.134165
-0.921875 0.411800 -0.086156
1.187500 0.542845 -0.222067
1.234375 0.619557 -0.228038
-1.187500 0.542845 -0.222067
-1.023438 0.553570 -0.135382
-1.234375 0.619557 -0.228038
1.351562 0.442825 -0.290663
-1.351562 0.442825 -0.290663
-1.265625 0.408150 -0.286373
1.265625 0.408150 -0.286373
1.281250 0.195063 -0.386746
-1.281250 0.195063 -0.386746
-1.210938 0.209326 -0.356826
1.210938 0.209326 -0.356826
1.039062 0.013864 -0.343204
-1.039062 0.013864 -0.343204
-1.031250 0.064947 -0.300237
0.828125 -0.021915 -0.148670
0.773438 -0.090799 -0.164790
-0.828125 -0.021915 -0.148670
-0.773438 -0.090799 -0.164790
1.031250 0.064947 -0.300237
0.882812 0.048362 -0.206652
-0.882812 0.048362 -0.206652
1.039062 0.122641 -0.346101
-1.039062 0.122641 -0.346101
1.234375 0.384378 -0.336239
-1.234375 0.384378 -0.336239
-1.187500 0.237101 -0.388427
1.171875 0.484863 -0.292344
-1.171875 0.484863 -0.292344
1.023438 0.444041 -0.223924
-1.023438 0.444041 -0.223924
0.945312 0.383737 -0.170696
-0.945312 0.383737 -0.170696
0.726562 0.023484 -0.066275
-0.726562 0.023484 -0.066275
-0.718750 0.035315 -0.169833
0.718750 0.035315 -0.169833
0.921875 0.411800 -0.086156
0.812500 0.076601 -0.262953
-0.812500 0.076601 -0.262953
0.718750 0.099444 -0.163685
0.843750 0.106056 -0.252516
-0.718750 0.099444 -0.163685
0.757812 0.179695 -0.226422
0.820312 0.172331 -0.229031
-0.843750 0.106056 -0.252516
-0.757812 0.179695 -0.226422
-0.820312 0.172331 -0.229031
0.796875 0.261913 -0.130980
0.835938 0.253333 -0.200328
-0.796875 0.261913 -0.130980
0.890625 0.316998 -0.169480
0.843750 0.342916 -0.102277
-0.890625 0.316998 -0.169480
-0.835938 0.253333 -0.200328
-0.843750 0.342916 -0.102277
0.890625 0.327900 -0.223636
0.953125 0.387275 -0.227462
-0.890625 0.327900 -0.223636
-0.953125 0.387275 -0.227462
-0.843750 0.268989 -0.244511
0.765625 0.195351 -0.270605
0.843750 0.268989 -0.244511
-0.765625 0.195351 -0.270605
-0.828125 0.180623 -0.275824
0.828125 0.180623 -0.275824
-0.851562 0.121712 -0.296699
0.812500 0.092257 -0.307137
0.851562 0.121712 -0.296699
-0.812500 0.092257 -0.307137
0.882812 0.073991 -0.255590
-0.882812 0.073991 -0.255590
1.039062 0.447579 -0.280690
-1.039062 0.447579 -0.280690
1.187500 0.485791 -0.341746
-1.187500 0.485791 -0.341746
1.257812 0.392671 -0.383032
-1.257812 0.392671 -0.383032
1.210938 0.242784 -0.427855
1.187500 0.237101 -0.388427
-1.210938 0.242784 -0.427855
1.046875 0.140907 -0.397648
-1.046875 0.140907 -0.397648
0.890625 0.212688 -0.272750
-0.890625 0.212688 -0.272750
-0.937500 0.171114 -0.295770
0.937500 0.171114 -0.295770
0.960938 0.279427 -0.273967
-0.960938 0.279427 -0.273967
-1.000000 0.240463 -0.304351
1.054688 0.304592 -0.298203
1.015625 0.346166 -0.275183
-1.054688 0.304592 -0.298203
-1.015625 0.346166 -0.275183
1.085938 0.388204 -0.276864
-1.085938 0.388204 -0.276864
-1.109375 0.329293 -0.297739
1.109375 0.329293 -0.297739
0.789062 -0.008227 -0.351032
1.039062 0.083389 -0.492626
-0.789062 -0.008227 -0.351032
-1.039062 0.083389 -0.492626
1.312500 0.228985 -0.482476
-1.312500 0.228985 -0.482476
1.367188 0.446827 -0.372130
-1.367188 0.446827 -0.372130
1.250000 0.624488 -0.358906
-1.250000 0.624488 -0.358906
1.023438 0.574157 -0.310433
-1.023438 0.574157 -0.310433
0.859375 0.488688 -0.232969
-0.859375 0.488688 -0.232969
-0.773438 0.396496 -0.323656
-0.164062 0.131955 0.867318
1.000000 0.240463 -0.304351
3 0 1 2
3 3 4 5
3 2 6 7
3 8 5 9
3 1 10 6
3 11 3 8
3 12 13 1
3 14 15 3
3 16 17 13
3 18 19 14
3 13 20 10
3 21 14 11
3 22 20 17
3 23 21 24
3 25 17 26
3 27 18 23
3 25 28 22
3 29 27 23
3 28 30 22
3 29 24 31
3 32 33 28
3 34 31 35
3 36 28 37
3 38 29 34
3 39 32 36
3 40 34 41
3 42 43 32
3 41 35 44
3 2 45 42
3 5 44 9
3 0 42 39
3 4 41 5
3 39 46 0
3 40 47 48
3 36 49 39
3 38 48 50
3 37 51 36
3 52 50 53
3 25 54 37
3 27 53 55
3 25 56 57
3 58 27 55
3 26 59 56
3 60 61 58
3 16 62 59
3 63 19 60
3 12 46 62
3 47 15 63
3 64 62 46
3 47 63 65
3 59 62 64
3 65 63 60
3 64 56 59
3 60 58 65
3 64 57 56
3 58 55 65
3 64 54 57
3 55 53 65
3 64 51 54
3 53 50 65
3 64 49 51
3 50 48 65
3 64 46 49
3 48 47 65
3 66 67 68
3 69 67 70
3 71 68 72
3 73 74 69
3 75 71 72
3 73 76 77
3 78 79 75
3 80 81 76
3 82 83 78
3 84 85 81
3 86 87 88
3 89 90 91
3 92 87 93
3 94 89 95
3 92 96 97
3 98 94 95
3 99 96 100
3 101 98 102
3 103 104 99
3 105 102 106
3 107 108 103
3 109 106 110
3 107 111 112
3 113 109 110
3 114 111 115
3 116 113 117
3 118 119 114
3 120 117 121
3 122 123 118
3 122 121 124
3 125 123 126
3 127 121 117
3 125 111 119
3 113 127 117
3 112 128 129
3 110 130 113
3 108 129 131
3 106 132 110
3 104 131 133
3 102 134 106
3 96 133 135
3 98 136 102
3 97 135 137
3 95 138 98
3 87 137 139
3 89 140 95
3 141 87 139
3 89 142 143
3 141 144 88
3 144 142 91
3 123 145 126
3 121 146 124
3 145 147 148
3 147 146 149
3 150 147 144
3 151 147 149
3 152 70 66
3 70 153 69
3 154 66 71
3 69 155 73
3 154 79 156
3 155 80 73
3 157 158 83
3 159 160 84
3 156 83 158
3 84 161 159
3 162 163 164
3 162 165 166
3 163 167 158
3 165 167 166
3 156 167 168
3 161 167 159
3 169 170 164
3 171 172 173
3 174 169 175
3 176 172 177
3 178 175 179
3 180 181 176
3 182 179 183
3 182 179 180
3 164 184 162
3 173 184 171
3 170 185 184
3 171 185 186
3 182 187 178
3 188 182 180
3 178 189 174
3 190 180 176
3 189 191 174
3 190 177 192
3 191 193 170
3 186 177 171
3 194 187 195
3 192 188 190
3 195 193 194
3 186 195 192
3 179 88 144
3 91 179 144
3 175 196 88
3 197 181 91
3 164 196 169
3 173 197 198
3 163 199 164
3 165 198 160
3 200 157 82
3 201 160 198
3 202 199 200
3 203 198 197
3 86 196 202
3 197 90 203
3 168 204 156
3 168 205 206
3 154 204 207
3 205 155 208
3 152 207 209
3 208 153 210
3 211 209 212
3 210 211 212
3 209 213 212
3 210 213 214
3 209 215 216
3 217 210 214
3 207 218 215
3 219 208 217
3 206 218 204
3 206 219 220
3 220 216 218
3 214 220 219
3 218 216 215
3 217 214 219
3 148 221 222
3 223 149 224
3 145 222 225
3 224 146 226
3 145 227 126
3 146 228 226
3 141 221 150
3 142 223 229
3 141 230 231
3 232 142 229
3 139 233 230
3 234 143 232
3 137 235 233
3 236 140 234
3 135 237 235
3 238 138 236
3 131 237 133
3 134 238 239
3 129 240 131
3 132 239 241
3 129 242 243
3 244 132 241
3 128 245 242
3 246 130 244
3 125 227 245
3 228 127 246
3 245 247 248
3 249 246 250
3 242 248 251
3 250 244 252
3 242 253 243
3 244 254 252
3 243 255 240
3 241 256 254
3 237 255 257
3 256 238 258
3 237 259 235
3 238 260 258
3 233 259 261
3 260 234 262
3 233 263 230
3 234 264 262
3 230 265 231
3 232 266 264
3 221 265 267
3 266 223 268
3 227 269 247
3 270 228 249
3 225 271 269
3 272 226 270
3 222 267 271
3 268 224 272
3 122 273 274
3 275 122 274
3 118 276 273
3 277 120 275
3 115 276 114
3 278 277 279
3 107 280 115
3 109 279 281
3 103 282 107
3 105 281 283
3 103 284 285
3 286 105 283
3 100 284 99
3 287 286 288
3 100 289 290
3 291 287 288
3 92 292 289
3 293 94 291
3 294 295 296
3 294 297 298
3 296 299 300
3 296 301 297
3 300 302 303
3 300 304 301
3 68 303 302
3 303 74 304
3 72 302 305
3 304 77 306
3 75 305 307
3 306 76 308
3 78 307 309
3 308 81 310
3 307 295 309
3 297 308 310
3 305 299 307
3 306 301 304
3 309 311 312
3 310 298 297
3 82 309 312
3 310 85 313
3 314 202 200
3 315 203 316
3 312 200 82
3 313 201 315
3 202 317 86
3 203 318 316
3 317 93 86
3 318 319 293
3 320 321 322
3 323 321 324
3 325 326 321
3 324 326 327
3 326 328 329
3 330 326 329
3 329 311 294
3 298 329 294
3 311 314 312
3 298 315 330
3 290 331 332
3 333 288 334
3 335 322 336
3 337 322 323
3 338 339 340
3 341 339 342
3 339 343 344
3 345 339 344
3 344 335 336
3 337 344 336
3 285 346 347
3 348 283 349
3 347 350 351
3 352 349 353
3 351 354 355
3 356 353 357
3 355 358 359
3 360 357 361
3 362 358 363
3 364 360 361
3 335 359 362
3 361 337 364
3 343 355 359
3 357 345 361
3 365 351 355
3 353 342 357
3 338 347 351
3 349 341 353
3 285 366 282
3 283 367 349
3 366 340 368
3 367 340 341
3 276 282 273
3 277 281 279
3 273 366 368
3 367 275 368
3 274 273 368
3 368 275 274
3 290 346 284
3 288 348 334
3 332 350 346
3 352 334 348
3 369 354 350
3 356 370 352
3 358 371 363
3 360 372 356
3 373 374 328
3 327 375 376
3 374 377 331
3 375 378 376
3 289 374 331
3 375 291 333
3 292 314 374
3 315 293 375
3 314 328 374
3 375 330 315
3 292 317 379
3 316 318 293
3 380 362 363
3 381 364 382
3 362 320 335
3 364 323 382
3 383 380 377
3 376 381 382
3 325 383 373
3 324 376 382
3 320 384 325
3 324 382 323
3 385 386 387
3 388 389 390
3 387 391 392
3 393 394 395
3 391 396 392
3 393 397 398
3 399 400 396
3 398 401 402
3 403 404 400
3 402 405 406
3 404 407 408
3 409 405 410
3 411 412 407
3 413 406 409
3 403 414 411
3 415 402 406
3 416 403 399
3 417 402 418
3 419 399 391
3 420 398 417
3 421 391 386
3 422 393 420
3 386 423 421
3 424 389 422
3 377 425 331
3 378 426 427
3 408 428 377
3 410 427 409
3 332 425 369
3 426 334 370
3 371 429 385
3 390 372 388
3 407 430 428
3 431 409 427
3 432 430 433
3 434 431 427
3 435 433 436
3 437 438 439
3 440 435 441
3 442 438 434
3 440 443 444
3 442 445 446
3 444 423 429
3 447 424 445
3 440 371 369
3 442 372 447
3 425 440 369
3 426 442 434
3 425 428 432
3 434 427 426
3 423 448 449
3 450 424 451
3 441 448 443
3 446 450 452
3 441 453 454
3 455 446 452
3 436 453 435
3 439 455 456
3 433 457 436
3 437 456 458
3 433 459 460
3 461 437 458
3 430 462 459
3 463 431 461
3 421 449 464
3 451 422 465
3 419 464 466
3 465 420 467
3 416 466 468
3 467 417 469
3 416 470 471
3 417 472 469
3 471 473 414
3 418 474 472
3 414 462 412
3 415 463 474
3 460 475 457
3 458 476 477
3 478 479 475
3 477 480 481
3 479 482 483
3 484 480 485
3 482 486 483
3 484 487 488
3 464 483 486
3 485 465 487
3 479 449 448
3 480 451 485
3 454 479 448
3 452 480 476
3 457 454 453
3 452 456 455
3 462 460 459
3 463 458 477
3 473 478 462
3 477 474 463
3 482 473 470
3 484 474 481
3 489 470 468
3 488 472 484
3 466 489 468
3 488 467 469
3 464 486 466
3 467 487 465
3 404 490 491
3 492 405 493
3 400 491 494
3 493 401 495
3 400 496 396
3 401 497 495
3 396 498 392
3 397 499 497
3 392 500 387
3 395 501 499
3 387 502 385
3 394 503 501
3 491 502 500
3 493 503 492
3 500 494 491
3 495 501 493
3 498 496 494
3 495 497 499
3 371 502 363
3 372 503 388
3 363 490 380
3 492 504 381
3 377 490 408
3 492 378 410
3 0 12 1
3 3 15 4
3 2 1 6
3 8 3 5
3 1 13 10
3 11 14 3
3 12 16 13
3 14 19 15
3 16 26 17
3 18 61 19
3 13 17 20
3 21 18 14
3 22 30 20
3 23 18 21
3 25 22 17
3 27 61 18
3 25 37 28
3 29 52 27
3 28 33 30
3 29 23 24
3 32 43 33
3 34 29 31
3 36 32 28
3 38 52 29
3 39 42 32
3 40 38 34
3 42 45 43
3 41 34 35
3 2 7 45
3 5 41 44
3 0 2 42
3 4 40 41
3 39 49 46
3 40 4 47
3 36 51 49
3 38 40 48
3 37 54 51
3 52 38 50
3 25 57 54
3 27 52 53
3 25 26 56
3 58 61 27
3 26 16 59
3 60 19 61
3 16 12 62
3 63 15 19
3 12 0 46
3 47 4 15
3 66 70 67
3 69 74 67
3 71 66 68
3 73 77 74
3 75 79 71
3 73 80 76
3 78 83 79
3 80 84 81
3 82 157 83
3 84 160 85
3 86 93 87
3 89 319 90
3 92 97 87
3 94 319 89
3 92 100 96
3 98 287 94
3 99 104 96
3 101 287 98
3 103 108 104
3 105 101 102
3 107 112 108
3 109 105 106
3 107 115 111
3 113 278 109
3 114 119 111
3 116 278 113
3 118 123 119
3 120 116 117
3 122 124 123
3 122 120 121
3 125 119 123
3 127 505 121
3 125 128 111
3 113 130 127
3 112 111 128
3 110 132 130
3 108 112 129
3 106 134 132
3 104 108 131
3 102 136 134
3 96 104 133
3 98 138 136
3 97 96 135
3 95 140 138
3 87 97 137
3 89 143 140
3 141 88 87
3 89 91 142
3 141 150 144
3 144 151 142
3 123 124 145
3 121 505 146
3 145 124 147
3 147 124 146
3 150 148 147
3 151 144 147
3 152 211 70
3 70 211 153
3 154 152 66
3 69 153 155
3 154 71 79
3 155 161 80
3 157 163 158
3 159 165 160
3 156 79 83
3 84 80 161
3 162 166 163
3 162 173 165
3 163 166 167
3 165 159 167
3 156 158 167
3 161 168 167
3 169 191 170
3 171 177 172
3 174 191 169
3 176 181 172
3 178 174 175
3 180 179 181
3 182 178 179
3 164 170 184
3 173 162 184
3 170 193 185
3 171 184 185
3 182 195 187
3 188 195 182
3 178 187 189
3 190 188 180
3 189 194 191
3 190 176 177
3 191 194 193
3 186 192 177
3 194 189 187
3 192 195 188
3 195 185 193
3 186 185 195
3 179 175 88
3 91 181 179
3 175 169 196
3 197 172 181
3 164 199 196
3 173 172 197
3 163 157 199
3 165 173 198
3 200 199 157
3 201 85 160
3 202 196 199
3 203 201 198
3 86 88 196
3 197 91 90
3 168 206 204
3 168 161 205
3 154 156 204
3 205 161 155
3 152 154 207
3 208 155 153
3 211 152 209
3 210 153 211
3 209 216 213
3 210 212 213
3 209 207 215
3 217 208 210
3 207 204 218
3 219 205 208
3 206 220 218
3 206 205 219
3 220 213 216
3 214 213 220
3 148 150 221
3 223 151 149
3 145 148 222
3 224 149 146
3 145 225 227
3 146 505 228
3 141 231 221
3 142 151 223
3 141 139 230
3 232 143 142
3 139 137 233
3 234 140 143
3 137 135 235
3 236 138 140
3 135 133 237
3 238 136 138
3 131 240 237
3 134 136 238
3 129 243 240
3 132 134 239
3 129 128 242
3 244 130 132
3 128 125 245
3 246 127 130
3 125 126 227
3 228 505 127
3 245 227 247
3 249 228 246
3 242 245 248
3 250 246 244
3 242 251 253
3 244 241 254
3 243 253 255
3 241 239 256
3 237 240 255
3 256 239 238
3 237 257 259
3 238 236 260
3 233 235 259
3 260 236 234
3 233 261 263
3 234 232 264
3 230 263 265
3 232 229 266
3 221 231 265
3 266 229 223
3 227 225 269
3 270 226 228
3 225 222 271
3 272 224 226
3 222 221 267
3 268 223 224
3 122 118 273
3 275 120 122
3 118 114 276
3 277 116 120
3 115 280 276
3 278 116 277
3 107 282 280
3 109 278 279
3 103 285 282
3 105 109 281
3 103 99 284
3 286 101 105
3 100 290 284
3 287 101 286
3 100 92 289
3 291 94 287
3 92 93 292
3 293 319 94
3 294 311 295
3 294 296 297
3 296 295 299
3 296 300 301
3 300 299 302
3 300 303 304
3 68 67 303
3 303 67 74
3 72 68 302
3 304 74 77
3 75 72 305
3 306 77 76
3 78 75 307
3 308 76 81
3 307 299 295
3 297 301 308
3 305 302 299
3 306 308 301
3 309 295 311
3 310 313 298
3 82 78 309
3 310 81 85
3 314 379 202
3 315 201 203
3 312 314 200
3 313 85 201
3 202 379 317
3 203 90 318
3 317 292 93
3 318 90 319
3 320 325 321
3 323 322 321
3 325 373 326
3 324 321 326
3 326 373 328
3 330 327 326
3 329 328 311
3 298 330 329
3 311 328 314
3 298 313 315
3 290 289 331
3 333 291 288
3 335 320 322
3 337 336 322
3 338 365 339
3 341 340 339
3 339 365 343
3 345 342 339
3 344 343 335
3 337 345 344
3 285 284 346
3 348 286 283
3 347 346 350
3 352 348 349
3 351 350 354
3 356 352 353
3 355 354 358
3 360 356 357
3 362 359 358
3 364 504 360
3 335 343 359
3 361 345 337
3 343 365 355
3 357 342 345
3 365 338 351
3 353 341 342
3 338 366 347
3 349 367 341
3 285 347 366
3 283 281 367
3 366 338 340
3 367 368 340
3 276 280 282
3 277 275 281
3 273 282 366
3 367 281 275
3 290 332 346
3 288 286 348
3 332 369 350
3 352 370 334
3 369 371 354
3 356 372 370
3 358 354 371
3 360 504 372
3 373 383 374
3 327 330 375
3 374 383 377
3 375 333 378
3 289 292 374
3 375 293 291
3 292 379 314
3 315 316 293
3 380 384 362
3 381 504 364
3 362 384 320
3 364 337 323
3 383 384 380
3 376 378 381
3 325 384 383
3 324 327 376
3 385 429 386
3 388 394 389
3 387 386 391
3 393 389 394
3 391 399 396
3 393 395 397
3 399 403 400
3 398 397 401
3 403 411 404
3 402 401 405
3 404 411 407
3 409 406 405
3 411 414 412
3 413 415 406
3 403 471 414
3 415 418 402
3 416 471 403
3 417 398 402
3 419 416 399
3 420 393 398
3 421 419 391
3 422 389 393
3 386 429 423
3 424 390 389
3 377 428 425
3 378 333 426
3 408 407 428
3 410 378 427
3 332 331 425
3 426 333 334
3 371 444 429
3 390 447 372
3 407 412 430
3 431 413 409
3 432 428 430
3 434 437 431
3 435 432 433
3 437 434 438
3 440 432 435
3 442 446 438
3 440 441 443
3 442 447 445
3 444 443 423
3 447 390 424
3 440 444 371
3 442 370 372
3 425 432 440
3 426 370 442
3 423 443 448
3 450 445 424
3 441 454 448
3 446 445 450
3 441 435 453
3 455 438 446
3 436 457 453
3 439 438 455
3 433 460 457
3 437 439 456
3 433 430 459
3 461 431 437
3 430 412 462
3 463 413 431
3 421 423 449
3 451 424 422
3 419 421 464
3 465 422 420
3 416 419 466
3 467 420 417
3 416 468 470
3 417 418 472
3 471 470 473
3 418 415 474
3 414 473 462
3 415 413 463
3 460 478 475
3 458 456 476
3 478 506 479
3 477 476 480
3 479 506 482
3 484 481 480
3 482 489 486
3 484 485 487
3 464 449 483
3 485 451 465
3 479 483 449
3 480 450 451
3 454 475 479
3 452 450 480
3 457 475 454
3 452 476 456
3 462 478 460
3 463 461 458
3 473 506 478
3 477 481 474
3 482 506 473
3 484 472 474
3 489 482 470
3 488 469 472
3 466 486 489
3 488 487 467
3 404 408 490
3 492 410 405
3 400 404 491
3 493 405 401
3 400 494 496
3 401 397 497
3 396 496 498
3 397 395 499
3 392 498 500
3 395 394 501
3 387 500 502
3 394 388 503
3 491 490 502
3 493 501 503
3 500 498 494
3 495 499 501
3 371 385 502
3 372 504 503
3 363 502 490
3 492 503 504
3 377 380 490
3 492 381 378
